<svg width="18" height="19" viewBox="0 0 18 19" fill="none" xmlns="http://www.w3.org/2000/svg">
<path d="M17.5965 14.7371L14.8167 11.9507C14.263 11.398 13.346 11.4148 12.7731 11.9893L11.3726 13.3926C11.2841 13.3437 11.1925 13.2927 11.0962 13.2385C10.2118 12.7474 9.0014 12.0742 7.72766 10.7967C6.45015 9.51641 5.77788 8.30136 5.28635 7.41439C5.23449 7.32043 5.18479 7.22983 5.13572 7.14379L6.07565 6.20313L6.53775 5.73941C7.11161 5.16409 7.12743 4.24536 6.57504 3.69103L3.79522 0.904295C3.24282 0.350751 2.32549 0.367544 1.75163 0.942856L0.968184 1.73259L0.989593 1.75389C0.726892 2.08985 0.507372 2.47733 0.344011 2.89519C0.193424 3.29293 0.0996685 3.67248 0.0567986 4.05281C-0.310259 7.10269 1.0803 9.89005 4.85409 13.6724C10.0706 18.9004 14.2744 18.5055 14.4558 18.4862C14.8508 18.4389 15.2293 18.3443 15.614 18.1946C16.0273 18.0327 16.4136 17.813 16.7486 17.5503L16.7658 17.5655L17.5594 16.7866C18.1321 16.2114 18.1486 15.2923 17.5965 14.7371Z" fill="#1C2F36"/>
</svg>
