<svg width="26" height="26" viewBox="0 0 26 26" fill="none" xmlns="http://www.w3.org/2000/svg">
<path d="M25.4171 20.5648L21.4018 16.5399C20.6021 15.7415 19.2776 15.7658 18.45 16.5956L16.4271 18.6227C16.2993 18.5521 16.167 18.4783 16.0279 18.4001C14.7504 17.6907 13.002 16.7183 11.1622 14.873C9.31688 13.0237 8.34583 11.2686 7.63585 9.98746C7.56093 9.85173 7.48914 9.72086 7.41826 9.59659L8.77593 8.23785L9.44342 7.56803C10.2723 6.73702 10.2952 5.40996 9.49728 4.60927L5.48198 0.583981C4.68408 -0.215582 3.35904 -0.191325 2.53014 0.639681L1.39849 1.78041L1.42941 1.81118C1.04996 2.29645 0.73287 2.85615 0.496905 3.45971C0.27939 4.03423 0.143966 4.58247 0.0820424 5.13183C-0.448151 9.53722 1.56043 13.5634 7.01146 19.0269C14.5464 26.5784 20.6186 26.0079 20.8806 25.9801C21.4511 25.9117 21.9979 25.7751 22.5536 25.5588C23.1505 25.3251 23.7086 25.0077 24.1925 24.6282L24.2172 24.6502L25.3636 23.5251C26.1908 22.6942 26.2147 21.3667 25.4171 20.5648Z" fill="#A0ADB3"/>
</svg>
