<svg width="36" height="36" viewBox="0 0 36 36" fill="none" xmlns="http://www.w3.org/2000/svg">
<path d="M18 0C8.0744 0 0 7.97576 0 17.7801C0 27.5844 8.0744 35.5602 18 35.5602C27.9256 35.5602 36 27.5844 36 17.7801C36 7.97576 27.9256 0 18 0ZM26.5605 26.9767C26.268 27.2657 25.8841 27.4111 25.5001 27.4111C25.1161 27.4111 24.7319 27.2657 24.4396 26.9767L16.9395 19.5685C16.6575 19.2915 16.5001 18.915 16.5001 18.521V8.89005C16.5001 8.07072 17.1719 7.40847 18 7.40847C18.8281 7.40847 19.4999 8.07072 19.4999 8.89005V17.9076L26.5605 24.8817C27.1469 25.4612 27.1469 26.3975 26.5605 26.9767Z" fill="#A0ADB3"/>
</svg>
