<svg width="27" height="36" viewBox="0 0 27 36" fill="none" xmlns="http://www.w3.org/2000/svg">
<path d="M13.5 0C6.05606 0 0 5.84874 0 13.0378C0 21.9596 12.0812 35.0574 12.5955 35.6106C13.0787 36.1303 13.9222 36.1293 14.4045 35.6106C14.9188 35.0574 27 21.9596 27 13.0378C26.9999 5.84874 20.9439 0 13.5 0ZM13.5 19.5975C9.75477 19.5975 6.70788 16.6548 6.70788 13.0378C6.70788 9.42076 9.75484 6.47818 13.5 6.47818C17.2452 6.47818 20.292 9.42083 20.292 13.0379C20.292 16.6549 17.2452 19.5975 13.5 19.5975Z" fill="#A0ADB3"/>
</svg>
