<svg width="360" height="554" viewBox="0 0 360 554" fill="none" xmlns="http://www.w3.org/2000/svg">
<path d="M-320.215 437.425V418.108L-250.474 417.996V479.09C-261.18 487.625 -272.223 494.064 -283.604 498.406C-294.984 502.674 -306.663 504.808 -318.643 504.808C-334.814 504.808 -349.526 501.364 -362.778 494.476C-375.955 487.513 -385.913 477.48 -392.651 464.378C-399.39 451.276 -402.759 436.639 -402.759 420.467C-402.759 404.445 -399.427 389.508 -392.764 375.657C-386.025 361.731 -376.367 351.399 -363.789 344.661C-351.211 337.923 -336.724 334.554 -320.327 334.554C-308.423 334.554 -297.679 336.5 -288.096 340.394C-278.438 344.212 -270.876 349.565 -265.41 356.453C-259.945 363.341 -255.789 372.326 -252.944 383.406L-272.598 388.797C-275.068 380.411 -278.138 373.823 -281.807 369.031C-285.475 364.24 -290.716 360.421 -297.529 357.576C-304.342 354.656 -311.904 353.196 -320.215 353.196C-330.173 353.196 -338.783 354.731 -346.045 357.801C-353.307 360.796 -359.185 364.764 -363.677 369.705C-368.094 374.646 -371.538 380.075 -374.009 385.989C-378.201 396.172 -380.298 407.215 -380.298 419.119C-380.298 433.794 -377.79 446.072 -372.773 455.955C-367.682 465.838 -360.308 473.175 -350.649 477.967C-340.991 482.758 -330.734 485.154 -319.878 485.154C-310.444 485.154 -301.235 483.357 -292.251 479.764C-283.267 476.095 -276.453 472.202 -271.812 468.084V437.425H-320.215ZM-217.793 502V337.361H-98.75V356.79H-196.006V407.215H-104.927V426.531H-196.006V482.571H-94.9316V502H-217.793ZM-64.3848 502V337.361H54.6582V356.79H-42.5977V407.215H48.4814V426.531H-42.5977V482.571H58.4766V502H-64.3848ZM87.6758 502V337.361H109.463V482.571H190.547V502H87.6758ZM245.913 502V432.259L182.461 337.361H208.965L241.421 387C247.41 396.284 252.988 405.568 258.154 414.852C263.096 406.242 269.085 396.546 276.123 385.765L308.018 337.361H333.398L267.7 432.259V502H245.913Z" fill="#AEBBC1"/>
<path d="M26.7852 237.425V218.108L96.5264 217.996V279.09C85.82 287.625 74.7767 294.064 63.3965 298.406C52.0163 302.674 40.3366 304.808 28.3574 304.808C12.1855 304.808 -2.52637 301.364 -15.7783 294.476C-28.9554 287.513 -38.9131 277.48 -45.6514 264.378C-52.3896 251.276 -55.7588 236.639 -55.7588 220.467C-55.7588 204.445 -52.4271 189.508 -45.7637 175.657C-39.0254 161.731 -29.3672 151.399 -16.7891 144.661C-4.21094 137.923 10.2764 134.554 26.6729 134.554C38.5771 134.554 49.321 136.5 58.9043 140.394C68.5625 144.212 76.1243 149.565 81.5898 156.453C87.0553 163.341 91.2106 172.326 94.0557 183.406L74.4023 188.797C71.9316 180.411 68.862 173.823 65.1934 169.031C61.5247 164.24 56.2839 160.421 49.4707 157.576C42.6576 154.656 35.0957 153.196 26.7852 153.196C16.8275 153.196 8.21745 154.731 0.955078 157.801C-6.30729 160.796 -12.1846 164.764 -16.6768 169.705C-21.0941 174.646 -24.5381 180.075 -27.0088 185.989C-31.2015 196.172 -33.2979 207.215 -33.2979 219.119C-33.2979 233.794 -30.7897 246.072 -25.7734 255.955C-20.6823 265.838 -13.3076 273.175 -3.64941 277.967C6.00879 282.758 16.266 285.154 27.1221 285.154C36.5557 285.154 45.7646 283.357 54.749 279.764C63.7334 276.095 70.5465 272.202 75.1885 268.084V237.425H26.7852ZM129.207 302V137.361H248.25V156.79H150.994V207.215H242.073V226.531H150.994V282.571H252.068V302H129.207ZM282.615 302V137.361H401.658V156.79H304.402V207.215H395.481V226.531H304.402V282.571H405.477V302H282.615ZM434.676 302V137.361H456.463V282.571H537.547V302H434.676ZM592.913 302V232.259L529.461 137.361H555.965L588.421 187C594.41 196.284 599.988 205.568 605.154 214.852C610.096 206.242 616.085 196.546 623.123 185.765L655.018 137.361H680.398L614.7 232.259V302H592.913Z" fill="#AEBBC1"/>
<path d="M249.336 0V196.81M249.336 196.81V264H311.5V375.5L288 336.5M249.336 196.81H91" stroke="#AEBBC1"/>
</svg>
