<svg width="1759" height="802" viewBox="0 0 1759 802" fill="none" xmlns="http://www.w3.org/2000/svg">
<path d="M247.266 496.543V446.152L429.199 445.859V605.234C401.27 627.5 372.461 644.297 342.773 655.625C313.086 666.758 282.617 672.324 251.367 672.324C209.18 672.324 170.801 663.34 136.23 645.371C101.855 627.207 75.8789 601.035 58.3008 566.855C40.7227 532.676 31.9336 494.492 31.9336 452.305C31.9336 410.508 40.625 371.543 58.0078 335.41C75.5859 299.082 100.781 272.129 133.594 254.551C166.406 236.973 204.199 228.184 246.973 228.184C278.027 228.184 306.055 233.262 331.055 243.418C356.25 253.379 375.977 267.344 390.234 285.312C404.492 303.281 415.332 326.719 422.754 355.625L371.484 369.688C365.039 347.812 357.031 330.625 347.461 318.125C337.891 305.625 324.219 295.664 306.445 288.242C288.672 280.625 268.945 276.816 247.266 276.816C221.289 276.816 198.828 280.82 179.883 288.828C160.938 296.641 145.605 306.992 133.887 319.883C122.363 332.773 113.379 346.934 106.934 362.363C95.9961 388.926 90.5273 417.734 90.5273 448.789C90.5273 487.07 97.0703 519.102 110.156 544.883C123.438 570.664 142.676 589.805 167.871 602.305C193.066 614.805 219.824 621.055 248.145 621.055C272.754 621.055 296.777 616.367 320.215 606.992C343.652 597.422 361.426 587.266 373.535 576.523V496.543H247.266ZM514.453 665V235.508H825V286.191H571.289V417.734H808.887V468.125H571.289V614.316H834.961V665H514.453ZM914.648 665V235.508H1225.2V286.191H971.484V417.734H1209.08V468.125H971.484V614.316H1235.16V665H914.648ZM1311.33 665V235.508H1368.16V614.316H1579.69V665H1311.33ZM1724.12 665V483.066L1558.59 235.508H1627.73L1712.4 365C1728.03 389.219 1742.58 413.438 1756.05 437.656C1768.95 415.195 1784.57 389.902 1802.93 361.777L1886.13 235.508H1952.34L1780.96 483.066V665H1724.12Z" fill="#AEBBC1"/>
<path d="M865.32 0V364M865.32 364V484H1635.5L1465 214M865.32 364H581.5" stroke="#AEBBC1" stroke-width="2"/>
</svg>
